<?xml version="1.0" encoding="UTF-8" standalone="no"?>
<svg
   xmlns:dc="http://purl.org/dc/elements/1.1/"
   xmlns:cc="http://creativecommons.org/ns#"
   xmlns:rdf="http://www.w3.org/1999/02/22-rdf-syntax-ns#"
   xmlns:svg="http://www.w3.org/2000/svg"
   xmlns="http://www.w3.org/2000/svg"
   xmlns:sodipodi="http://sodipodi.sourceforge.net/DTD/sodipodi-0.dtd"
   xmlns:inkscape="http://www.inkscape.org/namespaces/inkscape"
   sodipodi:docname="Emergencia.svg"
   inkscape:version="1.0 (4035a4fb49, 2020-05-01)"
   id="svg8"
   version="1.1"
   viewBox="0 0 508 297"
   height="1122.5197"
   width="1920">
  <defs
     id="defs2">
    <inkscape:path-effect
       message="Utilice la regla de relleno parimpar en el diálogo &lt;b&gt;Relleno y borde&lt;/b&gt; si el resultado no está aplanada después de convertir el recorte en trayectos."
       hide_clip="false"
       flatten="false"
       inverse="true"
       lpeversion="1"
       is_visible="true"
       id="path-effect118"
       effect="powerclip" />
    <pattern
       id="EMFhbasepattern"
       patternUnits="userSpaceOnUse"
       width="6"
       height="6"
       x="0"
       y="0" />
    <pattern
       id="EMFhbasepattern-3"
       patternUnits="userSpaceOnUse"
       width="6"
       height="6"
       x="0"
       y="0" />
    <clipPath
       id="clipPath114"
       clipPathUnits="userSpaceOnUse">
      <circle
         d="m 113.83483,109.98438 a 13,13 0 0 1 -13,13 13,13 0 0 1 -12.999999,-13 13,13 0 0 1 12.999999,-12.999997 13,13 0 0 1 13,12.999997"
         r="13"
         cy="109.98438"
         cx="100.83483"
         id="circle116"
         style="display:none;fill:#ff0000;stroke-width:0.266361" />
      <path
         d="M 80.850449,90.094498 H 120.85045 V 130.0945 H 80.850449 Z m 32.984381,19.889882 a 13,13 0 0 0 -13,-12.999997 13,13 0 0 0 -12.999999,12.999997 13,13 0 0 0 12.999999,13 13,13 0 0 0 13,-13"
         class="powerclip"
         style="fill:#ff0000;stroke-width:0.266361"
         id="lpe_path-effect118" />
    </clipPath>
    <pattern
       id="EMFhbasepattern-9"
       patternUnits="userSpaceOnUse"
       width="6"
       height="6"
       x="0"
       y="0" />
  </defs>
  <sodipodi:namedview
     units="px"
     inkscape:object-paths="false"
     inkscape:window-maximized="1"
     inkscape:window-y="-8"
     inkscape:window-x="1358"
     inkscape:window-height="705"
     inkscape:window-width="1366"
     showgrid="false"
     inkscape:document-rotation="0"
     inkscape:current-layer="layer1"
     inkscape:document-units="mm"
     inkscape:cy="554.2424"
     inkscape:cx="1374.6578"
     inkscape:zoom="0.35"
     inkscape:pageshadow="2"
     inkscape:pageopacity="0.0"
     borderopacity="1.0"
     bordercolor="#666666"
     pagecolor="#ffffff"
     id="base" />
  <metadata
     id="metadata5">
    <rdf:RDF>
      <cc:Work
         rdf:about="">
        <dc:format>image/svg+xml</dc:format>
        <dc:type
           rdf:resource="http://purl.org/dc/dcmitype/StillImage" />
        <dc:title></dc:title>
      </cc:Work>
    </rdf:RDF>
  </metadata>
  <g
     id="layer1"
     inkscape:groupmode="layer"
     inkscape:label="Capa 1">
    <g
       id="g155">
      <path
         style="fill:#000000;stroke-width:1.41616"
         d="m 296.48956,176.98491 c -7.39941,-1.02733 -15.84324,-2.88203 -18.76406,-4.12155 l -5.31058,-2.25367 v -14.90705 c 0,-16.6547 1.77567,-21.98521 10.00313,-30.02908 6.87145,-6.71811 14.88519,-8.83977 33.38876,-8.83977 24.035,0 33.71037,4.45959 41.43243,19.09713 2.46502,4.67255 2.97732,8.14166 2.97732,20.16121 v 14.51756 l -5.31058,2.24088 c -5.57559,2.3527 -31.52633,6.32285 -40.0064,6.12049 -2.7261,-0.065 -11.0106,-0.95882 -18.41002,-1.98615 z"
         id="path141"
         sodipodi:nodetypes="sscssssscsss" />
      <circle
         style="fill:#000000;stroke-width:0.248047"
         id="path151"
         cx="315.91257"
         cy="89.268021"
         r="24.054258" />
    </g>
  </g>
</svg>
