<?xml version="1.0" encoding="UTF-8" standalone="no"?>
<svg
   xmlns:dc="http://purl.org/dc/elements/1.1/"
   xmlns:cc="http://creativecommons.org/ns#"
   xmlns:rdf="http://www.w3.org/1999/02/22-rdf-syntax-ns#"
   xmlns:svg="http://www.w3.org/2000/svg"
   xmlns="http://www.w3.org/2000/svg"
   xmlns:xlink="http://www.w3.org/1999/xlink"
   width="200mm"
   height="200mm"
   viewBox="0 0 200 199.99999"
   version="1.1"
   id="svg8">
  <defs
     id="defs2">
    <linearGradient
       gradientTransform="translate(-12.574965,-44.670891)"
       gradientUnits="userSpaceOnUse"
       y2="151.12691"
       x2="72.852768"
       y1="100.29102"
       x1="72.852768"
       id="linearGradient838"
       xlink:href="#linearGradient836" />
    <linearGradient
       id="linearGradient836">
      <stop
         id="stop832"
         offset="0"
         style="stop-color:#2584b8;stop-opacity:1" />
      <stop
         id="stop834"
         offset="1"
         style="stop-color:#01a9ba;stop-opacity:1" />
    </linearGradient>
    <filter
       style="color-interpolation-filters:sRGB"
       id="filter836"
       x="-1.1227535e-06"
       width="1.0000021"
       y="-1.2886611e-06"
       height="1.0000026">
      <feGaussianBlur
         stdDeviation="2.7493026e-05"
         id="feGaussianBlur838" />
    </filter>
  </defs>
  <metadata
     id="metadata5">
    <rdf:RDF>
      <cc:Work
         rdf:about="">
        <dc:format>image/svg+xml</dc:format>
        <dc:type
           rdf:resource="http://purl.org/dc/dcmitype/StillImage" />
        <dc:title></dc:title>
      </cc:Work>
    </rdf:RDF>
  </metadata>
  <g
     id="layer1">
    <path
       transform="matrix(3.3522366,0,0,3.3522366,-102.03015,-171.65883)"
       id="path23"
       d="m 36.672453,106.08787 c -2.97189,-0.66197 -5.78975,-3.9378 -5.78975,-6.730709 0,-1.23922 0.0691,-1.29496 3.10272,-2.5039 4.74444,-1.89069 10.415025,-4.67657 12.504925,-6.14349 4.0436,-2.83824 6.357516,-3.39619 9.512166,-2.29366 0.83647,0.29234 4.42523,0.88167 7.97503,1.30963 3.97077,0.47872 6.91298,1.02039 7.64657,1.40777 0.65581,0.34631 1.36162,0.57178 1.56847,0.50105 11.73933,-4.01455 15.26364,-4.27315 15.53037,-1.13956 0.0609,0.71569 -0.10832,1.59002 -0.37609,1.94296 -0.26777,0.35294 -3.58951,2.1583 -7.38165,4.01191 -3.79214,1.85361 -7.89139,4.040579 -9.10944,4.859939 l -2.21464,1.48974 -7.81451,-0.2425 c -10.605646,-0.3291 -14.647166,0.35407 -17.840476,3.01571 -0.95409,0.79523 -1.50504,1.09807 -3.471658,1.06428 -1.27694,-0.022 -2.992857,-0.36002 -3.842037,-0.54917 z m 6.902345,-1.94642 c 3.32939,-2.33319 5.87102,-2.94054 13.069926,-3.12319 3.51642,-0.0892 7.62659,0.008 9.13372,0.21538 l 2.74024,0.37759 3.97829,-2.389609 c 2.18807,-1.31429 6.20283,-3.4567 8.9217,-4.76093 5.34255,-2.56277 6.27309,-3.27152 5.61802,-4.27896 -0.58038,-0.89258 -2.80639,-0.62838 -7.39326,0.87748 -5.75814,1.89037 -6.51927,2.26316 -6.78825,3.32478 -0.44476,1.75531 -2.07624,2.19496 -7.83767,2.11202 -3.23544,-0.0466 -5.46027,0.0815 -5.95276,0.34254 -0.97488,0.51681 -1.91662,0.20467 -1.62826,-0.5397 0.45705,-1.17982 3.64403,-1.62916 9.55064,-1.34656 3.9056,0.18686 5.52541,-0.82915 3.795,-2.38037 -0.5385,-0.48275 -2.06663,-0.77293 -6.11142,-1.16054 -2.96636,-0.28426 -6.7473,-0.86617 -8.40208,-1.29313 -3.73799,-0.96447 -4.739526,-0.79576 -7.866426,1.32508 -3.28798,2.2301 -8.899864,4.99982 -14.040695,6.92974 -2.13019,0.7997 -2.25312,1.0537 -1.44138,2.978149 0.72256,1.71301 1.73188,2.54127 4.07312,3.34244 3.017081,1.03246 4.497521,0.90824 6.581545,-0.55221 z M 67.840034,86.401431 c -9.03952,-6.05018 -14.01597,-12.91905 -14.01597,-19.34591 0,-5.003532 2.98287,-9.597862 7.26417,-11.188542 2.70968,-1.006763 6.58873,-0.17136 9.14994,1.97054 0.6504,0.54393 1.30301,0.98896 1.45023,0.98896 0.14722,0 0.88437,-0.48345 1.63811,-1.07432 6.36797,-4.992033 15.23552,-1.58986 16.20501,7.1089 0.32726,2.936372 0.0617,5.614282 -1.73616,9.239512 -1.08214,2.18203 -2.17414,3.5737 -4.98551,6.35367 -3.47344,3.43464 -9.89209,8.17542 -11.06889,8.17542 -0.31446,0 -2.06987,-1.00271 -3.90093,-2.22823 z m 5.49621,-0.44618 c 2.38745,-1.42421 7.31896,-5.36007 9.14669,-7.30001 2.03485,-2.15978 4.08934,-5.5291 4.48697,-6.30009 l 0.38738,-0.75112 c -0.40366,-0.0709 -2.21083,-0.0249 -3.59033,2.6e-4 -1.06853,0.0195 -2.81938,-0.22944 -3.03591,-0.0129 -0.21654,0.21654 -1.52105,4.36869 -1.52105,4.36869 -2.21434,6.35991 -3.15945,5.99364 -3.2297,-1.25405 -0.0181,-1.86969 -0.15525,-4.23765 -0.30474,-5.26213 l -0.27178,-1.8627 -0.42448,1.49016 c -0.23346,0.81959 -0.5408,2.1322 -0.68297,2.91693 -0.34859,1.92406 -1.07761,2.0916 -2.62724,0.60381 -0.70724,-0.67902 -1.36796,-1.15328 -1.46827,-1.05391 -0.10031,0.0994 -0.96208,1.93197 -1.91505,4.07247 -1.84499,4.1441 -2.57034,5.20889 -3.14783,4.62093 -0.19262,-0.19612 -0.47104,-3.07637 -0.61871,-6.40057 -0.14767,-3.32419 -0.39577,-5.96606 -0.55135,-5.87081 -0.15557,0.0952 -0.57688,1.36162 -0.93624,2.81417 -0.76972,3.1113 -1.64742,3.34428 -2.9539,1.69066 -0.71247,-0.90178 -1.19614,-0.8816 -2.16996,-0.86586 l -1.58214,0.0256 c -0.8221,0.0133 2.5031,4.77685 5.41009,7.66723 2.66466,2.64945 9.03132,7.47503 9.86221,7.47503 0.20768,0 0.98992,-0.36527 1.73831,-0.81171 z m -5.22084,-13.90361 c 0.80845,-1.74162 1.68115,-3.16659 1.93933,-3.16659 0.25819,0 0.99726,0.50677 1.6424,1.12616 l 1.17297,1.12617 1.00541,-4.01335 c 1.54963,-6.185802 1.7599,-6.807402 2.30268,-6.807402 0.72808,0 0.87421,0.96507 1.17049,7.730212 0.14582,3.32957 0.39152,6.05377 0.546,6.05377 0.15448,0 0.59973,-0.88013 0.98946,-1.95584 0,0 0.59,-1.95949 0.7754,-2.09022 0.20119,-0.14185 4.08353,-0.0519 4.08353,-0.0519 l 4.10024,0.0309 0.14139,-2.26613 c 0.29505,-4.728742 -1.66618,-8.456492 -5.37561,-10.254232 -1.74202,-0.84425 -2.40601,-0.97935 -3.84977,-0.78333 -1.87697,0.25484 -4.69341,1.84296 -6.08995,3.43398 l -0.86388,0.98418 -1.56298,-1.51349 c -3.79068,-3.67066 -7.67457,-3.94712 -11.28897,-0.80357 -2.74965,2.39145 -4.13418,6.31809 -3.468,9.835592 l 0.25304,1.33611 h 2.35231 c 1.29377,0 2.54985,0.19568 2.79129,0.43483 0.33458,0.33143 0.47784,0.30928 0.60238,-0.0931 0.35905,-1.16012 2.05846,-7.682872 2.30255,-8.837722 0.1845,-0.87293 0.44187,-1.19721 0.88395,-1.11374 0.762,0.14387 1.09524,2.48703 1.15475,8.119602 0.0396,3.74685 0.33241,6.70572 0.66362,6.70572 0.0858,0 0.81751,-1.42497 1.62597,-3.16659 z"
       style="fill:url(#linearGradient838);fill-opacity:1;stroke-width:0.374;stroke-miterlimit:4;stroke-dasharray:none;filter:url(#filter836)" />
  </g>
</svg>
