<?xml version="1.0" encoding="UTF-8" standalone="no"?>
<svg
   xmlns:dc="http://purl.org/dc/elements/1.1/"
   xmlns:cc="http://creativecommons.org/ns#"
   xmlns:rdf="http://www.w3.org/1999/02/22-rdf-syntax-ns#"
   xmlns:svg="http://www.w3.org/2000/svg"
   xmlns="http://www.w3.org/2000/svg"
   xmlns:sodipodi="http://sodipodi.sourceforge.net/DTD/sodipodi-0.dtd"
   xmlns:inkscape="http://www.inkscape.org/namespaces/inkscape"
   sodipodi:docname="User.svg"
   inkscape:version="1.0 (4035a4fb49, 2020-05-01)"
   id="svg8"
   version="1.1"
   viewBox="0 0 508 297"
   height="1122.5197"
   width="1920">
  <defs
     id="defs2">
    <inkscape:path-effect
       message="Utilice la regla de relleno parimpar en el diálogo &lt;b&gt;Relleno y borde&lt;/b&gt; si el resultado no está aplanada después de convertir el recorte en trayectos."
       hide_clip="false"
       flatten="false"
       inverse="true"
       lpeversion="1"
       is_visible="true"
       id="path-effect118"
       effect="powerclip" />
    <pattern
       id="EMFhbasepattern"
       patternUnits="userSpaceOnUse"
       width="6"
       height="6"
       x="0"
       y="0" />
    <pattern
       id="EMFhbasepattern-3"
       patternUnits="userSpaceOnUse"
       width="6"
       height="6"
       x="0"
       y="0" />
    <clipPath
       id="clipPath114"
       clipPathUnits="userSpaceOnUse">
      <circle
         d="m 113.83483,109.98438 a 13,13 0 0 1 -13,13 13,13 0 0 1 -12.999999,-13 13,13 0 0 1 12.999999,-12.999997 13,13 0 0 1 13,12.999997"
         r="13"
         cy="109.98438"
         cx="100.83483"
         id="circle116"
         style="display:none;fill:#ff0000;stroke-width:0.266361" />
      <path
         d="M 80.850449,90.094498 H 120.85045 V 130.0945 H 80.850449 Z m 32.984381,19.889882 a 13,13 0 0 0 -13,-12.999997 13,13 0 0 0 -12.999999,12.999997 13,13 0 0 0 12.999999,13 13,13 0 0 0 13,-13"
         class="powerclip"
         style="fill:#ff0000;stroke-width:0.266361"
         id="lpe_path-effect118" />
    </clipPath>
  </defs>
  <sodipodi:namedview
     units="px"
     inkscape:object-paths="false"
     inkscape:window-maximized="0"
     inkscape:window-y="0"
     inkscape:window-x="1957"
     inkscape:window-height="696"
     inkscape:window-width="779"
     showgrid="false"
     inkscape:document-rotation="0"
     inkscape:current-layer="layer1"
     inkscape:document-units="mm"
     inkscape:cy="554.2424"
     inkscape:cx="1374.6578"
     inkscape:zoom="0.35"
     inkscape:pageshadow="2"
     inkscape:pageopacity="0.0"
     borderopacity="1.0"
     bordercolor="#666666"
     pagecolor="#ffffff"
     id="base" />
  <metadata
     id="metadata5">
    <rdf:RDF>
      <cc:Work
         rdf:about="">
        <dc:format>image/svg+xml</dc:format>
        <dc:type
           rdf:resource="http://purl.org/dc/dcmitype/StillImage" />
        <dc:title></dc:title>
      </cc:Work>
    </rdf:RDF>
  </metadata>
  <g
     id="layer1"
     inkscape:groupmode="layer"
     inkscape:label="Capa 1">
    <g
       transform="matrix(6.5948421,0,0,6.5948421,-222.70702,-577.45692)"
       id="g126">
      <path
         style="fill:#000000;stroke-width:0.376038"
         d="m 66.83224,116.57848 v -2.96181 h -3.0232 C 60.2356,113.61667 60,113.39133 60,109.9735 c 0,-2.98723 0.53588,-3.43509 4.11025,-3.43509 h 2.72199 l 0.006,-2.70091 c 0.04778,-3.901626 0.03791,-3.854406 4.060802,-3.83416 3.151793,0.0472 3.187933,-0.0278 3.145198,4.09663 v 2.43844 h 2.59815 c 3.3952,0 3.85452,0.45696 3.85452,3.83476 0,2.98503 -0.31561,3.2435 -3.96052,3.2435 h -2.49215 v 3.22199 c 0,3.38733 -0.13256,3.39398 -3.7008,3.4724 -3.462806,-0.23563 -3.459533,-0.16447 -3.5112,-3.73258 z"
         id="path38"
         sodipodi:nodetypes="ccssscccccssscscc" />
      <path
         style="fill:#000000;fill-rule:evenodd;stroke-width:0.292368"
         id="path98"
         clip-path="url(#clipPath114)"
         inkscape:path-effect="#path-effect118"
         sodipodi:type="arc"
         sodipodi:cx="100.85045"
         sodipodi:cy="110.0945"
         sodipodi:rx="15"
         sodipodi:ry="15"
         d="m 115.85045,110.0945 a 15,15 0 0 1 -15,15 15,15 0 0 1 -15.000001,-15 15,15 0 0 1 15.000001,-15.000002 15,15 0 0 1 15,15.000002 z"
         transform="translate(-30.566967,0.28347851)" />
    </g>
  </g>
</svg>
